<?xml version="1.0" encoding="UTF-8" standalone="no"?>
<svg width="96px" height="25px" viewBox="0 0 96 25" version="1.1" xmlns="http://www.w3.org/2000/svg" xmlns:xlink="http://www.w3.org/1999/xlink">
    <!-- Generator: Sketch 50.2 (55047) - http://www.bohemiancoding.com/sketch -->
    <title>Logo_H24</title>
    <desc>Created with Sketch.</desc>
    <defs></defs>
    <g id="Page-1" stroke="none" stroke-width="1" fill="none" fill-rule="evenodd" opacity="0.8">
        <g id="E.4.-Contracts---Requesr-for-a-contract-(s.1)" transform="translate(-81.000000, -27.000000)" fill-rule="nonzero">
            <g id="Sidebar">
                <g id="Logo_H24" transform="translate(81.000000, 27.000000)">
                    <g id="Group" transform="translate(84.174274, 4.207469)" fill="#2FB321">
                        <g id="Shape">
                            <path d="M1.38786722,6.5606639 C1.52726141,6.36318672 1.68587552,6.1793527 1.86410788,6.00891286 C2.04214108,5.8386722 2.24160996,5.67206639 2.46231535,5.50944398 C2.68299585,5.34682158 2.9133112,5.18419917 3.15343568,5.02157676 C3.41658921,4.83572614 3.67613278,4.65186722 3.93169295,4.46982573 C4.18725311,4.28795851 4.41174274,4.09053112 4.60541079,3.87744398 C4.79887967,3.66453112 4.95567635,3.43222407 5.07585062,3.18049793 C5.19580083,2.92894606 5.25587552,2.64039834 5.25587552,2.31512863 C5.25587552,2.03636515 5.20543568,1.76539419 5.10487967,1.50204149 C5.00414938,1.23888797 4.85116183,1.00458921 4.64606639,0.799294606 C4.44079668,0.594224066 4.18725311,0.431576763 3.88523651,0.311427386 C3.58321992,0.191477178 3.23474689,0.13140249 2.83984232,0.13140249 C2.46032365,0.13140249 2.11386722,0.18766805 1.80022407,0.299825726 C1.48660581,0.412182573 1.21364315,0.570995851 0.981311203,0.77606639 C0.749004149,0.9813361 0.559170124,1.23107054 0.412157676,1.52529461 C0.264970954,1.81966805 0.172033195,2.14491286 0.133394191,2.50097925 L1.03941909,2.50097925 C1.07026556,1.9666805 1.24849793,1.55048963 1.57374274,1.25233195 C1.89896266,0.954298755 2.32095436,0.805120332 2.83984232,0.805120332 C3.05653942,0.805120332 3.25981743,0.839950207 3.44965145,0.909659751 C3.6393112,0.979344398 3.80392531,1.08388382 3.9433195,1.22327801 C4.08271369,1.3626722 4.19302905,1.53507884 4.27436515,1.74017427 C4.35567635,1.94544398 4.39630705,2.18357676 4.39630705,2.45452282 C4.39630705,2.64819087 4.34586722,2.83204979 4.2453112,3.00627386 C4.14458091,3.18049793 4.01300415,3.35093776 3.85040664,3.5173444 C3.68778423,3.68395021 3.50193361,3.84460581 3.29282988,3.99938589 C3.08377593,4.15439004 2.8706888,4.30919502 2.6539917,4.464 C2.40604979,4.63443983 2.15250622,4.81645643 1.89313693,5.00995021 C1.63361826,5.20359336 1.38968465,5.4146888 1.161361,5.64301245 C0.932838174,5.87151037 0.727568465,6.11743568 0.545726141,6.38058921 C0.363684647,6.64394191 0.230091286,6.93433195 0.144970954,7.25175934 L0.144970954,8.0300166 L5.25587552,8.0300166 L5.25582573,7.2053029 L1.06259751,7.2053029 C1.13995021,6.97302075 1.24847303,6.75814108 1.38786722,6.5606639 Z"></path>
                            <path d="M5.36347718,8.13756846 L0.0374439834,8.13756846 L0.0374439834,7.23759336 L0.0411037344,7.22390041 C0.129037344,6.8960166 0.269053942,6.59168465 0.45726971,6.31941909 C0.641925311,6.05218257 0.853219917,5.79901245 1.0853278,5.56695436 C1.31646473,5.33581743 1.56659751,5.11941909 1.82880498,4.92375934 C2.08986722,4.72902075 2.34697095,4.54453942 2.59304564,4.37539419 C2.81195851,4.21899585 3.02639004,4.06304564 3.22874689,3.91302075 C3.43247303,3.76219917 3.61568465,3.60383402 3.77340249,3.44223237 C3.92878008,3.28319502 4.05619917,3.11843154 4.15217427,2.95244813 C4.24279668,2.79545228 4.28873029,2.62790041 4.28873029,2.45452282 C4.28873029,2.19843983 4.25024066,1.97141079 4.17433195,1.77975934 C4.09874689,1.58915353 3.99540249,1.42750207 3.86723651,1.2993112 C3.73964315,1.17171784 3.58663071,1.07457261 3.41250622,1.01061411 C3.23551867,0.945609959 3.04282158,0.912647303 2.83979253,0.912647303 C2.35125311,0.912647303 1.94972614,1.05360996 1.64634025,1.33160166 C1.34385062,1.60892116 1.17575104,2.00442324 1.14672199,2.50715353 L1.14089627,2.60850622 L0.0134937759,2.60850622 L0.026439834,2.4893527 C0.0663236515,2.12218257 0.163717842,1.78165145 0.31593361,1.47717012 C0.468373444,1.17214108 0.66826556,0.909136929 0.910082988,0.695452282 C1.15175104,0.482116183 1.43902905,0.314962656 1.76392531,0.198572614 C2.08812448,0.0826307054 2.45011618,0.0238506224 2.83981743,0.0238506224 C3.24637344,0.0238506224 3.61145228,0.0869875519 3.92492116,0.211493776 C4.23908714,0.336497925 4.50729461,0.508655602 4.72207469,0.723211618 C4.93705394,0.938414938 5.09962656,1.18747718 5.20528631,1.46357676 C5.31022407,1.73838174 5.36342739,2.02483817 5.36342739,2.31512863 C5.36342739,2.65498755 5.2993195,2.96170954 5.17292116,3.22678008 C5.04881328,3.48682158 4.8846473,3.73005809 4.68500415,3.94976763 C4.48700415,4.16760996 4.25454772,4.37208299 3.99405809,4.55743568 C3.76060581,4.72374274 3.50594191,4.90431535 3.21550207,5.10941079 C2.97677178,5.27108714 2.74543568,5.43440664 2.52614938,5.5959834 C2.31049793,5.75487137 2.11277178,5.91993361 1.93847303,6.08661411 C1.76634025,6.25122822 1.6106639,6.43157676 1.47577593,6.6226556 C1.37165975,6.77016598 1.28487137,6.92945228 1.21682988,7.09775104 L5.36347718,7.09775104 L5.36347718,8.13756846 Z M0.252547718,7.92248963 L5.14832365,7.92248963 L5.14832365,7.31287967 L0.913518672,7.31287967 L0.960622407,7.17136929 C1.04078838,6.93047303 1.15498755,6.70414108 1.3000332,6.4986473 C1.44286307,6.29626556 1.60765145,6.105361 1.78981743,5.93118672 C1.97073859,5.75818257 2.17553527,5.58717012 2.39855602,5.42287967 C2.62010788,5.25960996 2.85383402,5.09462241 3.09316183,4.93254772 C3.38160996,4.72879668 3.63607469,4.54842324 3.8693029,4.38224066 C4.1173195,4.20575104 4.33817427,4.01160996 4.52581743,3.80512033 C4.7113195,3.60094606 4.86373444,3.37521162 4.97878008,3.13416598 C5.09128631,2.89827386 5.14832365,2.6226971 5.14832365,2.31512863 C5.14832365,2.05117842 5.09992531,1.79053942 5.00439834,1.54040664 C4.90959336,1.29276349 4.76342739,1.06894606 4.5700083,0.875327801 C4.37609129,0.681609959 4.13230705,0.525485477 3.84550207,0.411385892 C3.55747718,0.296987552 3.21911203,0.238954357 2.83984232,0.238954357 C2.47488797,0.238954357 2.13729461,0.293502075 1.83644813,0.401103734 C1.53736929,0.508232365 1.27361826,0.661518672 1.05248963,0.856705394 C0.831510373,1.0519917 0.648423237,1.29311203 0.508381743,1.57336929 C0.384124481,1.82188382 0.299278008,2.09726141 0.255585062,2.39342739 L0.939759336,2.39342739 C0.988356846,1.88041494 1.17692116,1.47019917 1.50107054,1.17303734 C1.84538589,0.857526971 2.29580913,0.697543568 2.83984232,0.697543568 C3.06824066,0.697543568 3.28588382,0.734912863 3.48672199,0.808680498 C3.69034855,0.883493776 3.86955187,0.997394191 4.01937759,1.14719502 C4.16843154,1.29624896 4.28785892,1.48239834 4.37434855,1.70048963 C4.46029046,1.91751037 4.50388382,2.17117842 4.50388382,2.45449793 C4.50388382,2.66611618 4.44824066,2.86984232 4.33844813,3.0600249 C4.23348548,3.24156846 4.09518672,3.4206971 3.9273112,3.59250622 C3.76162656,3.76224896 3.56967635,3.92823237 3.35681328,4.08582573 C3.15348548,4.23657261 2.9380332,4.39326971 2.71648133,4.55151037 C2.47112863,4.72020747 2.21626556,4.90307054 1.95744398,5.09614108 C1.70352697,5.28562656 1.46126141,5.49520332 1.23741909,5.71904564 C1.01447303,5.9419668 0.811543568,6.18510373 0.634207469,6.44170954 C0.462622407,6.68992531 0.334257261,6.96719502 0.252547718,7.26604979 L0.252547718,7.92248963 Z"></path>
                        </g>
                        <g transform="translate(6.024896, 0.124481)" id="Shape">
                            <path d="M3.72617427,7.90556017 L3.72617427,5.95414108 L0.125327801,5.95414108 L0.125327801,4.9900332 L3.66811618,0.111485477 L4.53928631,0.111485477 L4.53928631,5.28042324 L5.68921992,5.28042324 L5.68921992,5.95414108 L4.53928631,5.95414108 L4.53928631,7.90556017 L3.72617427,7.90556017 Z M0.833875519,5.28042324 L3.72617427,5.28042324 L3.72617427,1.21496266 L0.833875519,5.28042324 Z"></path>
                            <path d="M4.64683817,8.01308714 L3.61859751,8.01308714 L3.61859751,6.06166805 L0.0177510373,6.06166805 L0.0177510373,4.95507884 L0.0382904564,4.92682158 L3.61326971,0.00393360996 L4.64683817,0.00393360996 L4.64683817,5.17287137 L5.79677178,5.17287137 L5.79677178,6.06166805 L4.64683817,6.06166805 L4.64683817,8.01308714 Z M3.83372614,7.7980083 L4.43173444,7.7980083 L4.43173444,5.84658921 L5.58166805,5.84658921 L5.58166805,5.3879751 L4.43173444,5.3879751 L4.43173444,0.219037344 L3.72293776,0.219037344 L0.232879668,5.02496266 L0.232879668,5.84658921 L3.83372614,5.84658921 L3.83372614,7.7980083 Z M3.83372614,5.3879751 L0.625369295,5.3879751 L3.83372614,0.87826556 L3.83372614,5.3879751 Z M1.04238174,5.17287137 L3.61862241,5.17287137 L3.61862241,1.55165975 L1.04238174,5.17287137 Z"></path>
                        </g>
                    </g>
                    <g id="Group" transform="translate(30.497925, 5.875519)" fill="#009DDE">
                        <polygon id="Shape" points="0.0185726141 13.7330041 0.0185726141 0.44026556 2.2200249 0.44026556 2.2200249 5.96910373 7.59761826 5.96910373 7.59761826 0.44026556 9.79907054 0.44026556 9.79907054 13.7330041 7.59761826 13.7330041 7.59761826 7.83445643 2.2200249 7.83445643 2.2200249 13.7330041"></polygon>
                        <path d="M11.4698838,8.84278008 C11.4698838,7.28569295 11.8984232,6.04473859 12.7554772,5.12046473 C13.6125311,4.19619087 14.6906639,3.73404149 15.9904481,3.73404149 C17.2676266,3.73404149 18.3205643,4.19907884 19.1497842,5.12885477 C19.9787303,6.05887967 20.3933278,7.26886307 20.3933278,8.75873029 C20.3933278,9.05019087 20.3765228,9.33587552 20.3429378,9.61578423 L13.6209461,9.61578423 C13.6209461,10.3552033 13.8420249,10.9911535 14.2847303,11.5231369 C14.7271618,12.0553942 15.3350539,12.321361 16.1080581,12.321361 C16.6458423,12.321361 17.118971,12.1898091 17.5280913,11.9264564 C17.9369129,11.6633527 18.2478174,11.3243651 18.4607552,10.9097427 L20.2421079,11.5147469 C19.9283154,12.231834 19.4186639,12.8313112 18.7128299,13.3128797 C18.0070207,13.7944481 17.1273859,14.0354938 16.0744481,14.0354938 C14.7187718,14.0354938 13.6125062,13.5649544 12.7554772,12.6238755 C11.8984481,11.6827967 11.4698838,10.4224481 11.4698838,8.84278008 Z M13.6545311,8.12014108 L18.2255104,8.12014108 C18.2255104,7.38072199 18.0293527,6.75052282 17.6373361,6.22956846 C17.2450207,5.70861411 16.6962324,5.44812448 15.9904481,5.44812448 C15.2846639,5.44812448 14.7216598,5.71439004 14.3015353,6.24634855 C13.8813859,6.77863071 13.6655602,7.4033029 13.6545311,8.12014108 Z" id="Shape"></path>
                        <path d="M21.1398672,11.1954772 C21.1398672,9.36951037 22.4952946,8.25460581 25.2066722,7.85128631 C26.1924149,7.70581743 26.8871701,7.57137759 27.2904896,7.4479668 L27.2904896,6.92701245 C27.2904896,6.45647303 27.1224398,6.08676349 26.7863402,5.81788382 C26.4502407,5.54900415 26.0020332,5.41456432 25.4419419,5.41456432 C24.3774523,5.41456432 23.4589793,5.85149378 22.6859253,6.7253527 L21.3919419,5.61619917 C21.8960913,5.02252282 22.4981826,4.56039834 23.1984647,4.22977593 C23.8984979,3.89945228 24.6353029,3.73404149 25.408332,3.73404149 C26.8535602,3.73404149 27.884166,4.08430705 28.5004481,4.78436515 C29.1164315,5.4846722 29.424722,6.46224896 29.424722,7.71682158 L29.424722,13.7330041 L27.3577095,13.7330041 L27.3577095,12.5230456 C27.1560498,12.9376432 26.8057593,13.2934357 26.3073859,13.5901494 C25.8087635,13.8868631 25.2234772,14.0354938 24.551278,14.0354938 C23.4867635,14.0354938 22.6523154,13.7721162 22.0473361,13.2456349 C21.4423568,12.7191535 21.1398672,12.0357261 21.1398672,11.1954772 Z M23.2909295,11.0106224 C23.2909295,11.369278 23.4337593,11.6688797 23.719444,11.9096763 C24.0051535,12.150722 24.3832531,12.2709959 24.8537676,12.2709959 C25.5259668,12.2709959 26.0999751,12.0470041 26.5762905,11.5987967 C27.0523568,11.1508382 27.2905145,10.5626639 27.2905145,9.83427386 L27.2905145,8.94360996 C26.7750871,9.06702075 26.153278,9.1846556 25.4251618,9.29651452 C24.0022407,9.52073029 23.2909295,10.0920996 23.2909295,11.0106224 Z" id="Shape"></path>
                        <polygon id="Shape" points="31.3812199 13.7330041 31.3812199 0.00333609959 33.4986473 0.00333609959 33.4986473 13.7330041"></polygon>
                        <path d="M34.715751,5.85146888 L34.715751,4.03655602 L36.2113693,4.03655602 L36.2113693,1.16290456 L38.3288216,1.16290456 L38.3288216,4.03655602 L40.5470788,4.03655602 L40.5470788,5.85146888 L38.3288216,5.85146888 L38.3288216,10.624083 C38.3288216,11.0835934 38.4212365,11.413917 38.6060913,11.6155768 C38.790971,11.8172365 39.0737427,11.9180415 39.4547552,11.9180415 L40.5638838,11.9180415 L40.5638838,13.7329793 L39.1858755,13.7329793 C37.202888,13.7329793 36.2113693,12.7472614 36.2113693,10.7753029 L36.2113693,5.85144398 L34.715751,5.85144398 L34.715751,5.85146888 Z" id="Shape"></path>
                        <path d="M41.9154025,13.7330041 L41.9154025,0.00333609959 L44.0160249,0.00333609959 L44.0160249,5.028 L44.0664398,5.028 C44.3240166,4.65829046 44.6798091,4.35029876 45.1335436,4.10372614 C45.587278,3.85742739 46.0662075,3.7340166 46.5703568,3.7340166 C47.5001577,3.7340166 48.2731618,4.03389212 48.889444,4.63307054 C49.5054523,5.23254772 49.8137178,6.18754357 49.8137178,7.49833195 L49.8137178,13.7330041 L47.6962905,13.7329793 L47.6962905,7.76721162 C47.6962905,6.28837344 47.1921411,5.54895436 46.1838423,5.54895436 C45.5675602,5.54895436 45.0521328,5.81230705 44.6377593,6.33878838 C44.2231618,6.86551867 44.0159751,7.48152697 44.0159751,8.1873361 L44.0159751,13.7329793 L41.9154025,13.7330041 Z" id="Shape"></path>
                    </g>
                    <path d="M11.4348548,14.7858921 C12.1692946,13.5311203 13.2473029,12.7419087 14.6738589,12.4481328 C15.9037344,12.1941909 16.9792531,12.5228216 17.9103734,13.346888 C18.5352697,13.9020747 18.9983402,14.5792531 19.3493776,15.33361 C19.3593361,15.3560166 19.3692946,15.3784232 19.3991701,15.4008299 C19.4116183,15.1568465 19.4240664,14.9153527 19.4365145,14.6713693 C19.53361,12.5751037 19.6307054,10.4813278 19.7278008,8.38506224 C19.7850622,7.16763485 19.8373444,5.9526971 19.8946058,4.73526971 C19.9643154,3.2340249 20.0315353,1.73526971 20.1012448,0.234024896 C20.1112033,0.044813278 20.1186722,0.0398340249 20.3029046,0.0124481328 C20.3327801,0.00746887967 20.3626556,0.00497925311 20.3925311,0.00497925311 C20.6614108,-0.00248962656 20.7485477,0.067219917 20.7684647,0.336099585 C20.8157676,0.990871369 20.8556017,1.64315353 20.9029046,2.29792531 C20.9900415,3.55767635 21.0771784,4.81742739 21.1643154,6.0746888 C21.2290456,6.99834025 21.2912863,7.9219917 21.353527,8.84315353 C21.4406639,10.0879668 21.5278008,11.3327801 21.6149378,12.5751037 C21.6771784,13.4838174 21.7394191,14.3900415 21.8016598,15.2987552 C21.8165975,15.5153527 21.8315353,15.7319502 21.8639004,15.9485477 C21.9112033,15.6149378 21.9560166,15.2838174 22.0033195,14.9502075 C22.0780083,14.4273859 22.1477178,13.9045643 22.2248963,13.3817427 C22.3120332,12.7892116 22.3792531,12.1917012 22.4987552,11.6041494 C22.5784232,11.2107884 22.6804979,10.8248963 22.8622407,10.4639004 C22.9219917,10.346888 22.9917012,10.2348548 23.0937759,10.1502075 C23.2257261,10.0406639 23.3576763,10.0406639 23.4896266,10.1551867 C23.6165975,10.2672199 23.6912863,10.4141079 23.7560166,10.5659751 C23.9452282,11.0141079 24.039834,11.4871369 24.1145228,11.9651452 C24.1568465,12.226556 24.186722,12.4929461 24.2215768,12.7543568 C24.2390041,12.8912863 24.2240664,13.0307054 24.2564315,13.1676349 C24.2987552,13.3518672 24.3236515,13.5410788 24.4082988,13.7103734 C24.4929461,13.879668 24.6423237,13.9692946 24.8116183,14.0315353 C25.2099585,14.1759336 25.6082988,14.1236515 26.0016598,14.0091286 C26.0489627,13.9966805 26.0937759,13.9568465 26.1485477,13.9817427 L26.1460581,13.9817427 C25.9020747,14.2705394 25.5659751,14.3651452 25.2149378,14.4248963 C24.8912863,14.479668 24.580083,14.4423237 24.2863071,14.2929461 C23.9900415,14.1410788 23.8257261,13.8921162 23.753527,13.5709544 C23.6439834,13.0879668 23.6589212,12.5900415 23.5792531,12.1045643 C23.5344398,11.8282158 23.5045643,11.546888 23.419917,11.2780083 C23.4,11.213278 23.3875519,11.1161826 23.3103734,11.1112033 C23.2232365,11.1062241 23.2082988,11.2082988 23.1834025,11.2755187 C23.0614108,11.6315353 23.0141079,12.0049793 22.9493776,12.3709544 C22.9045643,12.6224066 22.8746888,12.8738589 22.8298755,13.1253112 C22.7029046,13.8124481 22.6506224,14.5120332 22.5435685,15.2016598 C22.4987552,15.4904564 22.4489627,15.7792531 22.3767635,16.0655602 C22.3419087,16.1950207 22.3195021,16.326971 22.259751,16.446473 C22.1701245,16.6257261 22.0381743,16.7327801 21.826556,16.7253112 C21.6049793,16.7153527 21.4282158,16.6356846 21.3261411,16.426556 C21.2738589,16.3170124 21.2564315,16.1975104 21.246473,16.0780083 C21.1443983,14.6688797 21.0448133,13.2622407 20.9452282,11.853112 C20.833195,10.279668 20.7211618,8.70622407 20.6091286,7.13526971 C20.5792531,6.70954357 20.5493776,6.28381743 20.5170124,5.85809129 C20.5120332,5.80580913 20.5045643,5.7560166 20.4846473,5.70373444 C20.4771784,5.87053942 20.4672199,6.03983402 20.459751,6.206639 C20.3726141,8.09377593 20.2879668,9.97842324 20.2033195,11.8655602 C20.1460581,13.1302905 20.0863071,14.3950207 20.026556,15.659751 C20.0165975,15.8738589 19.9742739,16.0829876 19.8970954,16.2846473 C19.8622407,16.3717842 19.819917,16.4564315 19.7576763,16.5261411 C19.6082988,16.6979253 19.406639,16.7153527 19.2298755,16.5709544 C19.1004149,16.4639004 19.013278,16.3244813 18.93361,16.180083 C18.6970954,15.7493776 18.4456432,15.3286307 18.1294606,14.9526971 C17.7560166,14.5070539 17.3327801,14.1186722 16.819917,13.8373444 C15.766805,13.2622407 14.7485477,13.3319502 13.7626556,14.0091286 C13.3020747,14.3253112 12.9460581,14.7286307 12.6821577,15.2215768 C12.5427386,15.4854772 12.4232365,15.7543568 12.3236515,16.0356846" id="Shape" fill="#2FB321"></path>
                    <path d="M15.4257261,24.1981743 L8.40995851,24.1981743 C7.87513693,24.1981743 7.44,23.7630373 7.44,23.2282158 L7.44,16.6994191 L5.73360996,16.6994191 L5.73360996,14.9786141 L7.98174274,14.9786141 C8.63188382,14.9786141 9.16082988,15.5075353 9.16082988,16.1576763 L9.16082988,22.4773693 L14.6748548,22.4773693 L14.6748548,15.8390041 L16.3956846,15.8390041 L16.3956846,23.2282158 C16.3956846,23.7630373 15.9605726,24.1981743 15.4257261,24.1981743 Z" id="Shape" fill="#009DDE"></path>
                    <path d="M8.06141079,16.6969046 L1.07302905,16.6969046 C0.483286307,16.6969046 0.00348547718,16.2171286 0.00348547718,15.6273859 L0.00348547718,8.9153527 C0.00348547718,8.32560996 0.483286307,7.84580913 1.07302905,7.84580913 L7.43502075,7.84580913 L7.43502075,1.41908714 C7.43502075,0.829344398 7.91482158,0.349543568 8.50456432,0.349543568 L15.3211618,0.349543568 C15.9109046,0.349543568 16.3907054,0.829344398 16.3907054,1.41908714 L16.3907054,7.84580913 L18.0995851,7.84580913 L18.0995851,9.566639 L15.7394191,9.566639 C15.1496763,9.566639 14.6698755,9.08683817 14.6698755,8.49709544 L14.6698755,2.07037344 L9.15585062,2.07037344 L9.15585062,8.49709544 C9.15585062,9.08683817 8.67604979,9.566639 8.08630705,9.566639 L1.72431535,9.566639 L1.72431535,14.9760996 L8.06141079,14.9760996 L8.06141079,16.6969046 Z" id="Shape" fill="#009DDE"></path>
                </g>
            </g>
        </g>
    </g>
</svg>